 // Lego Scared by TMD
<svg xmlns="http://www.w3.org/2000/svg" xmlns:xlink="http://www.w3.org/1999/xlink" version="1.1" x="0px" y="0px" viewBox="0 0 100 125" enable-background="new 0 0 100 100" xml:space="preserve"><path d="M76.057,19.079h-5.713V8.746C70.344,6.681,68.663,5,66.598,5H33.607c-2.065,0-3.746,1.681-3.746,3.747v10.332h-5.917  c-7.422,0-13.461,6.281-13.461,14.002v40.101c0,7.445,5.619,13.535,12.675,13.963v4.496c0,1.854,1.507,3.359,3.358,3.359h47.155  c1.853,0,3.358-1.507,3.358-3.359v-4.507c6.968-0.524,12.486-6.573,12.486-13.952V33.08C89.518,25.359,83.479,19.079,76.057,19.079z   M31.969,8.746c0-0.903,0.735-1.639,1.639-1.639h32.99c0.902,0,1.639,0.735,1.639,1.64v10.332H31.969V8.746z M74.923,91.641  c0,0.69-0.562,1.252-1.251,1.252H26.517c-0.689,0-1.251-0.562-1.251-1.252v-4.455h49.657V91.641z M87.409,73.182  c0,6.561-5.093,11.896-11.354,11.896H23.944c-6.26,0-11.354-5.336-11.354-11.896V33.081c0-6.559,5.094-11.895,11.354-11.895h5.917  h40.482h5.712c6.262,0,11.354,5.335,11.354,11.894V73.182z"/><path d="M60.404,61.191c-0.461,0-0.834,0.068-1.063,0.127c-1.157,0.283-1.544,0.445-2.077,0.668c-0.188,0.08-0.4,0.168-0.678,0.273  c-0.652,0.256-2.428,0.844-2.791,0.928c-1.581,0.359-2.77,0.584-3.531,0.664c-0.021,0.002-0.043,0.004-0.063,0.008  c-0.021-0.004-0.042-0.006-0.064-0.008c-0.762-0.08-1.95-0.305-3.531-0.664c-0.361-0.084-2.135-0.672-2.791-0.928  c-0.274-0.105-0.485-0.193-0.674-0.271c-0.535-0.225-0.921-0.387-2.08-0.67c-0.23-0.059-0.604-0.127-1.063-0.127  c-1.201,0-3.408,0.5-4.707,3.841c-0.623,1.602-0.81,2.507-0.8,3.872c-0.011,1.419,0.187,2.047,0.8,3.621  c1.299,3.342,3.506,3.842,4.707,3.842c0.459,0,0.832-0.068,1.062-0.126c1.16-0.284,1.546-0.446,2.081-0.671  c0.188-0.079,0.399-0.166,0.675-0.272c0.655-0.255,2.429-0.844,2.79-0.926c1.581-0.361,2.769-0.585,3.531-0.664  c0.022-0.003,0.044-0.006,0.064-0.008c0.021,0.002,0.042,0.005,0.063,0.008c0.763,0.079,1.951,0.303,3.531,0.664  c0.363,0.082,2.139,0.671,2.792,0.926c0.274,0.106,0.487,0.195,0.677,0.274c0.533,0.223,0.92,0.385,2.075,0.667  c0.231,0.06,0.604,0.128,1.065,0.128c1.199,0,3.406-0.5,4.707-3.842c0.611-1.574,0.809-2.202,0.799-3.614  c0.01-1.372-0.178-2.277-0.799-3.879C63.811,61.691,61.604,61.191,60.404,61.191z M63.213,71.594l-0.066,0.167  c-0.742,1.914-1.947,2.761-3.304,2.433c-1.026-0.25-1.325-0.377-1.815-0.584c-0.188-0.077-0.396-0.168-0.68-0.276  c-0.76-0.294-2.578-0.899-3.084-1.017c-1.547-0.353-2.847-0.603-3.601-0.688l-0.122-0.014c-0.02-0.003-0.038-0.005-0.057-0.007  l-0.188-0.017l-0.128,0.001l-0.188,0.01c-0.694,0.058-2.116,0.32-3.844,0.715c-0.508,0.115-2.325,0.723-3.083,1.017  c-0.282,0.108-0.493,0.199-0.68,0.276c-0.491,0.207-0.788,0.334-1.813,0.584c-1.365,0.328-2.562-0.519-3.307-2.433l-0.067-0.171  c-0.446-1.146-0.597-1.533-0.588-2.686c-0.009-1.2,0.147-1.801,0.655-3.106c0.745-1.914,1.951-2.755,3.305-2.433  c1.027,0.251,1.324,0.378,1.815,0.585c0.187,0.077,0.397,0.167,0.68,0.276c0.758,0.293,2.575,0.899,3.083,1.016  c1.805,0.412,3.274,0.682,3.932,0.722l0.001-0.001l0.054,0.005l0.11-0.001l0.188-0.01c0.694-0.057,2.115-0.318,3.843-0.715  c0.506-0.115,2.324-0.723,3.084-1.016c0.282-0.109,0.492-0.199,0.68-0.276c0.49-0.207,0.789-0.334,1.814-0.585  c1.366-0.322,2.563,0.519,3.305,2.433c0.508,1.306,0.666,1.904,0.656,3.113C63.811,70.059,63.66,70.445,63.213,71.594z"/><path d="M41.358,38.938l0.001-0.021c0.545-0.04,0.979-0.483,0.979-1.039c0-0.542-0.413-0.971-0.938-1.03v-0.017  c-0.023,0-0.044,0.003-0.067,0.003c-0.017-0.001-0.03-0.01-0.048-0.01c-0.023,0-0.044,0.012-0.067,0.014  c-6.561-0.02-9.041,4.677-9.513,5.729c-0.02,0.038-0.036,0.074-0.052,0.115c-0.019,0.046-0.033,0.083-0.039,0.097l0.019,0.007  c-0.021,0.083-0.051,0.163-0.051,0.252c0,0.582,0.472,1.054,1.054,1.054c0.405,0,0.745-0.235,0.922-0.57l0.025,0.01  C33.601,43.483,35.442,38.816,41.358,38.938z"/><path d="M68.826,42.778c-0.006-0.014-0.021-0.051-0.04-0.097c-0.015-0.041-0.031-0.076-0.052-0.115  c-0.471-1.052-2.952-5.748-9.514-5.729c-0.022-0.002-0.044-0.014-0.066-0.014c-0.02,0-0.032,0.009-0.049,0.01  c-0.022,0-0.043-0.003-0.066-0.003v0.017c-0.525,0.06-0.938,0.488-0.938,1.03c0,0.556,0.435,0.999,0.978,1.039l0.002,0.021  c5.916-0.122,7.759,4.545,7.774,4.592l0.026-0.01c0.177,0.335,0.519,0.57,0.923,0.57c0.582,0,1.053-0.472,1.053-1.054  c0-0.089-0.029-0.169-0.051-0.252L68.826,42.778z"/><path d="M39.711,44.702c-2.328,0-4.215,1.887-4.215,4.215s1.887,4.215,4.215,4.215c2.328,0,4.215-1.887,4.215-4.215  S42.039,44.702,39.711,44.702z M39.711,49.417c-0.966,0-1.75-0.783-1.75-1.75s0.784-1.75,1.75-1.75c0.967,0,1.75,0.783,1.75,1.75  S40.678,49.417,39.711,49.417z"/><path d="M60.521,44.702c-2.328,0-4.215,1.887-4.215,4.215s1.887,4.215,4.215,4.215s4.215-1.887,4.215-4.215  S62.85,44.702,60.521,44.702z M60.521,49.417c-0.967,0-1.75-0.783-1.75-1.75s0.783-1.75,1.75-1.75s1.75,0.783,1.75,1.75  S61.488,49.417,60.521,49.417z"/><text x="0" y="115" fill="#000000" font-size="5px" font-weight="bold" font-family="'Helvetica Neue', Helvetica, Arial-Unicode, Arial, Sans-serif">Created by TMD</text><text x="0" y="120" fill="#000000" font-size="5px" font-weight="bold" font-family="'Helvetica Neue', Helvetica, Arial-Unicode, Arial, Sans-serif">from the Noun Project</text></svg>
